<svg width="78" height="78" viewBox="0 0 78 78" fill="none" xmlns="http://www.w3.org/2000/svg">
<path d="M67.9253 13.56L67.4953 6.29669C67.4185 5.09893 66.4204 4.17757 65.2073 4.25435C64.0095 4.33113 63.1035 5.34462 63.1649 6.54238L63.2878 8.67686C57.0226 3.9933 49.4214 1.44421 41.4363 1.44421C31.6699 1.44421 22.4871 5.25249 15.5923 12.1473C14.7477 12.9919 14.7477 14.3586 15.5923 15.2185C16.7593 16.3855 18.2335 15.6485 18.6635 15.2185C24.7444 9.13754 32.837 5.77459 41.4517 5.77459C48.3004 5.77459 54.8113 7.89371 60.2473 11.8248L58.3739 11.9477C57.1761 12.0245 56.2701 13.0379 56.3316 14.2357C56.393 15.3874 57.3604 16.278 58.4967 16.278C58.5428 16.278 65.8829 15.8481 65.8829 15.8481C67.0807 15.7713 67.9867 14.7578 67.9253 13.56Z" fill="black"/>
<path d="M33.0983 69.1178C17.6502 64.9871 7.8531 50.23 9.3887 34.8127L10.4175 36.3636C10.8322 36.9932 12.1528 37.7456 13.412 36.9779C14.4254 36.3483 14.6865 34.9816 14.0262 33.9834L10.0336 27.9025C9.71117 27.4265 9.21978 27.0886 8.66697 26.9658C8.0988 26.8583 7.51527 26.9658 7.03924 27.2729L0.973643 31.2654C-0.0244927 31.9258 -0.3009 33.2617 0.359406 34.2599C1.01971 35.258 2.35568 35.5344 3.35381 34.8741L5.15046 33.6917C3.04669 51.4431 14.2412 68.5497 31.9773 73.2946C32.1615 73.3407 34.081 73.571 34.6339 71.759C34.987 70.6227 34.2653 69.4249 33.0983 69.1178Z" fill="black"/>
<path d="M76.7549 28.5321C76.4478 27.3804 75.2501 26.6894 74.0984 26.9965C72.9467 27.3036 72.2557 28.5014 72.5628 29.6531C76.6935 45.1011 68.8313 60.9792 54.7038 67.3519L55.533 65.6781C56.0705 64.6032 55.6405 63.3133 54.5656 62.7758C53.4907 62.2384 52.1855 62.6683 51.6634 63.7432L48.4079 70.2388C47.8704 71.3137 48.3004 72.6036 49.3753 73.1411L55.8709 76.3965C56.178 76.5501 57.9132 76.934 58.7732 75.4291C59.372 74.3849 58.8806 73.0643 57.8057 72.5268L55.8555 71.5441C72.2864 64.511 81.4999 46.2835 76.7549 28.5321Z" fill="black"/>
<path d="M31.4396 45.7768L35.34 41.7074C36.8602 40.1258 39.3172 37.8838 39.3172 34.613C39.3172 32.5707 37.7509 28.0099 32.2995 28.0099C28.1534 28.0099 25.3893 31.204 24.3759 32.7703L28.2302 35.0583C29.4433 33.1235 30.7332 32.1561 32.0845 32.1561C34.7104 32.1561 34.6183 33.9681 34.6183 34.6898C34.6183 36.5939 32.3456 38.7284 31.071 40.0336L24.7444 46.5138V50.0918H39.9621V45.7768H31.4396Z" fill="black"/>
<path d="M56.0551 40.7554V36.9932H51.433V40.7554H48.3772L55.6866 28.5014H50.4502L42.7569 41.2468V44.9169H51.433V50.0765H56.0551V44.9169H58.4967V40.7554H56.0551Z" fill="black"/>
<path d="M63.7485 25.7219C63.0114 25.7219 62.3511 26.0137 61.7676 26.6126V23.1729H59.8174V32.8164H61.7676V29.0388C61.7676 28.486 61.9058 27.3804 63.2264 27.3804C64.0095 27.3804 64.4088 27.9178 64.4088 28.9928V32.8164H66.359V28.5781C66.359 27.1961 65.499 25.7219 63.7485 25.7219Z" fill="black"/>
</svg>
