<svg width="78" height="78" viewBox="0 0 78 78" fill="none" xmlns="http://www.w3.org/2000/svg">
<path d="M38.844 76.44C48.36 76.44 57.876 72.852 65.208 65.676V67.86C65.208 68.796 65.832 69.42 66.768 69.42C67.704 69.42 68.328 68.796 68.328 67.86V61.932C68.328 60.996 67.704 60.372 66.768 60.372H60.84C59.904 60.372 59.28 60.996 59.28 61.932C59.28 62.868 59.904 63.492 60.84 63.492H62.712C49.296 76.596 27.768 76.596 14.508 63.336C13.884 62.712 12.948 62.712 12.324 63.336C11.7 63.96 11.7 64.896 12.324 65.52C19.812 72.696 29.328 76.44 38.844 76.44V76.44Z" fill="black"/>
<path d="M11.232 8.57999C10.296 8.57999 9.672 9.20399 9.672 10.14V16.068C9.672 17.004 10.296 17.628 11.232 17.628H17.16C18.096 17.628 18.72 17.004 18.72 16.068C18.72 15.132 18.096 14.508 17.16 14.508H14.976C28.392 1.40399 49.92 1.40399 63.18 14.664C63.804 15.288 64.74 15.288 65.364 14.664C65.988 14.04 65.988 13.104 65.364 12.48C50.856 -2.02801 27.3 -2.02801 12.792 12.324V10.14C12.792 9.35999 12.012 8.57999 11.232 8.57999V8.57999Z" fill="black"/>
<path d="M39.78 37.44C39 37.284 37.908 37.596 36.816 36.348C36.192 35.724 35.88 34.944 36.036 34.008C36.192 32.292 37.596 30.888 39.468 30.888C40.404 30.888 41.184 31.356 41.652 31.98C42.276 32.604 43.212 32.604 43.836 32.136C44.46 31.512 44.46 30.576 43.992 29.952C43.056 29.016 41.964 28.392 40.716 28.08V25.584C40.716 24.648 40.092 24.024 39.156 24.024C38.22 24.024 37.596 24.648 37.596 25.584V28.08C34.944 28.86 33.072 31.2 33.072 33.852C32.76 37.752 35.88 40.56 38.532 40.56H39C40.092 40.56 40.872 41.028 41.496 41.808C42.9 43.836 41.652 46.8 39.156 46.956C39 46.956 39 46.956 38.844 46.956C37.908 46.956 37.128 46.644 36.504 45.864C35.88 45.24 34.944 45.24 34.32 45.708C33.696 46.332 33.696 47.268 34.164 47.892C35.1 48.828 36.192 49.452 37.44 49.764V52.26C37.44 53.196 38.064 53.82 39 53.82C39.936 53.82 40.56 53.196 40.56 52.26V49.608C44.928 48.36 46.488 43.212 43.992 39.78C42.9 38.688 41.496 37.752 39.78 37.44V37.44Z" fill="black"/>
<path d="M39 14.04C25.272 14.04 14.04 25.272 14.04 39C14.04 52.728 25.272 63.96 39 63.96C52.728 63.96 63.96 52.728 63.96 39C63.96 25.272 52.728 14.04 39 14.04ZM39 60.84C26.988 60.84 17.16 51.012 17.16 39C17.16 26.988 26.988 17.16 39 17.16C51.012 17.16 60.84 26.988 60.84 39C60.84 51.012 51.012 60.84 39 60.84Z" fill="black"/>
</svg>
