<svg width="78" height="78" viewBox="0 0 78 78" fill="none" xmlns="http://www.w3.org/2000/svg">
<g clip-path="url(#clip0)">
<path d="M27.5776 21.7227L26.2584 22.2008C24.2225 22.939 22.7036 24.7199 22.2943 26.8498L21.8467 29.1953C21.6234 30.3571 21.9274 31.5469 22.6814 32.4593C23.4356 33.3726 24.5478 33.8963 25.7321 33.8963H37.1665C38.3417 33.8963 39.4482 33.3794 40.2023 32.4782C40.9558 31.5777 41.2693 30.3987 41.0624 29.2435L40.645 26.9103C40.2582 24.7469 38.7343 22.937 36.6676 22.1871L35.2691 21.6802V19.619C35.2691 19.5611 35.2635 19.5047 35.2551 19.4491C36.2753 18.4105 36.8597 16.9941 36.8597 15.545V12.4739C36.8597 9.4761 34.4207 7.03723 31.4227 7.03723C28.4248 7.03723 25.9853 9.4761 25.9853 12.4739V15.6407C25.9853 17.1303 26.5995 18.4903 27.5872 19.4779C27.5814 19.5242 27.5776 19.571 27.5776 19.6188V21.7227ZM38.3952 27.3125L38.8126 29.646C38.9001 30.1336 38.7677 30.6313 38.4494 31.0116C38.1307 31.3924 37.663 31.611 37.1662 31.611H25.7318C25.2313 31.611 24.7615 31.3898 24.4428 31.004C24.1247 30.6188 23.9963 30.1169 24.0907 29.6252L24.5383 27.2798C24.7962 25.9373 25.7539 24.8144 27.0367 24.3493L27.9008 24.0362C27.9225 24.0584 27.9443 24.0808 27.9677 24.1014C28.9523 24.9623 30.1874 25.3928 31.4232 25.3927C32.6575 25.3927 33.8922 24.9631 34.877 24.1038C34.9125 24.0729 34.9451 24.0396 34.9761 24.0048L35.8876 24.3353C37.1908 24.8078 38.1514 25.9486 38.3952 27.3125ZM28.2704 12.4739C28.2704 10.7363 29.6843 9.32239 31.4223 9.32239C32.889 9.32239 34.1215 10.3309 34.4714 11.6898C34.3246 11.7616 34.1739 11.8294 34.0196 11.8911C32.6147 12.4535 31.4799 12.3789 31.1555 12.1516C30.6388 11.7893 29.9264 11.9142 29.564 12.431C29.2017 12.9477 29.3268 13.6601 29.8434 14.0225C30.4014 14.4139 31.1589 14.6095 32.0233 14.6095C32.8086 14.6095 33.6823 14.4463 34.5743 14.1235V15.5447C34.5743 16.4181 34.213 17.2734 33.5831 17.8911C33.2915 18.1772 32.9574 18.3989 32.5987 18.5518C32.5735 18.5614 32.5488 18.5718 32.5246 18.5831C32.1561 18.7289 31.7624 18.8021 31.3601 18.7916C29.6563 18.7589 28.2704 17.3453 28.2704 15.6405V12.4739ZM31.3162 21.0766C31.3511 21.0772 31.3857 21.0775 31.4206 21.0775C31.9567 21.0775 32.482 20.9969 32.9838 20.8423V22.6703C32.0315 23.2574 30.8141 23.2571 29.863 22.6694V20.8457C30.3252 20.9857 30.8123 21.0669 31.3162 21.0766V21.0766Z" fill="black"/>
<path d="M13.4465 53.458H49.0294C49.6606 53.458 50.172 52.9466 50.172 52.3154C50.172 51.6843 49.6606 51.1729 49.0294 51.1729H13.4465C12.8153 51.1729 12.3039 51.6843 12.3039 52.3154C12.3039 52.9466 12.8153 53.458 13.4465 53.458V53.458Z" fill="black"/>
<path d="M13.4465 59.619H49.0294C49.6606 59.619 50.172 59.1076 50.172 58.4764C50.172 57.8453 49.6606 57.3339 49.0294 57.3339H13.4465C12.8153 57.3339 12.3039 57.8453 12.3039 58.4764C12.3039 59.1076 12.8153 59.619 13.4465 59.619V59.619Z" fill="black"/>
<path d="M13.4465 65.7796H49.0294C49.6606 65.7796 50.172 65.2682 50.172 64.637C50.172 64.0059 49.6606 63.4944 49.0294 63.4944H13.4465C12.8153 63.4944 12.3039 64.0059 12.3039 64.637C12.3039 65.2682 12.8153 65.7796 13.4465 65.7796V65.7796Z" fill="black"/>
<path d="M13.4465 71.9406H49.0294C49.6606 71.9406 50.172 71.4291 50.172 70.798C50.172 70.1668 49.6606 69.6554 49.0294 69.6554H13.4465C12.8153 69.6554 12.3039 70.1668 12.3039 70.798C12.3039 71.4291 12.8153 71.9406 13.4465 71.9406V71.9406Z" fill="black"/>
<path d="M12.3039 39.9939C12.3039 40.625 12.8153 41.1365 13.4465 41.1365H49.0294C49.6606 41.1365 50.172 40.625 50.172 39.9939C50.172 39.3627 49.6606 38.8513 49.0294 38.8513H13.4465C12.8153 38.8513 12.3039 39.3629 12.3039 39.9939V39.9939Z" fill="black"/>
<path d="M13.4465 47.2972H49.0294C49.6606 47.2972 50.172 46.7858 50.172 46.1547C50.172 45.5235 49.6606 45.0121 49.0294 45.0121H13.4465C12.8153 45.0121 12.3039 45.5235 12.3039 46.1547C12.3039 46.7858 12.8153 47.2972 13.4465 47.2972V47.2972Z" fill="black"/>
<path d="M9.22731 53.4623C9.86075 53.4623 10.3743 52.9489 10.3743 52.3155C10.3743 51.6822 9.86075 51.1686 9.22731 51.1686C8.59386 51.1686 8.08047 51.682 8.08047 52.3155C8.08047 52.9489 8.59402 53.4623 9.22731 53.4623Z" fill="black"/>
<path d="M9.22731 41.1407C9.86075 41.1407 10.3743 40.6273 10.3743 39.9939C10.3743 39.3604 9.86075 38.847 9.22731 38.847C8.59386 38.847 8.08047 39.3604 8.08047 39.9939C8.08047 40.6273 8.59402 41.1407 9.22731 41.1407Z" fill="black"/>
<path d="M9.22731 47.3015C9.86075 47.3015 10.3743 46.7881 10.3743 46.1547C10.3743 45.5212 9.86075 45.0078 9.22731 45.0078C8.59386 45.0078 8.08047 45.5212 8.08047 46.1547C8.08047 46.7881 8.59402 47.3015 9.22731 47.3015Z" fill="black"/>
<path d="M9.22731 59.623C9.86075 59.623 10.3743 59.1096 10.3743 58.4762C10.3743 57.8427 9.86075 57.3293 9.22731 57.3293C8.59386 57.3293 8.08047 57.8427 8.08047 58.4762C8.08047 59.1096 8.59402 59.623 9.22731 59.623Z" fill="black"/>
<path d="M9.22731 65.784C9.86075 65.784 10.3743 65.2706 10.3743 64.6372C10.3743 64.0038 9.86075 63.4904 9.22731 63.4904C8.59386 63.4904 8.08047 64.0038 8.08047 64.6372C8.08047 65.2705 8.59402 65.784 9.22731 65.784Z" fill="black"/>
<path d="M9.22731 71.9447C9.86075 71.9447 10.3743 71.4314 10.3743 70.7979C10.3743 70.1646 9.86075 69.6511 9.22731 69.6511C8.59386 69.6511 8.08047 70.1645 8.08047 70.7979C8.08047 71.4312 8.59402 71.9447 9.22731 71.9447Z" fill="black"/>
<path d="M73.9827 17.995C73.5217 17.4115 73.086 16.8602 72.8753 16.3523C72.648 15.804 72.5584 15.0796 72.4637 14.3124C72.2975 12.9684 72.1092 11.4451 71.0461 10.3822C69.983 9.31932 68.4596 9.13103 67.1156 8.96482C66.3483 8.87006 65.6236 8.78048 65.0753 8.55319C64.5672 8.3425 64.0161 7.9071 63.4324 7.44595C62.6294 6.81144 61.7463 6.11477 60.7021 5.79866V5.45299C60.7023 2.44634 58.2558 0 55.2487 0H7.64979C4.64268 0 2.19619 2.44634 2.19619 5.45314V9.86334C2.19619 10.4945 2.70761 11.0059 3.33877 11.0059C3.96993 11.0059 4.48134 10.4945 4.48134 9.86334V5.45314C4.48134 3.70622 5.90271 2.28516 7.64979 2.28516H55.2487C56.9957 2.28516 58.4171 3.70622 58.4171 5.45314V5.79896C57.3733 6.11523 56.4904 6.81159 55.6874 7.44611C55.1038 7.9071 54.5526 8.34265 54.0447 8.55334C53.4964 8.78048 52.7717 8.87006 52.0044 8.96497C50.6604 9.13103 49.1371 9.31932 48.0739 10.3822C47.0107 11.4453 46.8224 12.9686 46.6562 14.3125C46.5614 15.0796 46.4718 15.8041 46.2445 16.3524C46.0339 16.8603 45.5983 17.4117 45.1372 17.9951C44.2834 19.0754 43.316 20.2998 43.316 21.8673C43.316 23.4347 44.2836 24.6591 45.1372 25.7394C45.5982 26.3229 46.0339 26.8742 46.2445 27.3821C46.4718 27.9304 46.5614 28.6548 46.6562 29.4221C46.8224 30.766 47.0107 32.2893 48.0737 33.3522C49.1368 34.4152 50.6602 34.6034 52.0042 34.7696C52.4049 34.8191 52.7932 34.8677 53.1517 34.9347V52.2055C53.1517 52.8823 53.5295 53.4868 54.1378 53.783C54.7459 54.0796 55.4548 54.0043 55.9881 53.5868L58.417 51.6851V72.547C58.417 74.2939 56.9956 75.715 55.2485 75.715H7.64979C5.90271 75.715 4.48134 74.2939 4.48134 72.547V14.8948C4.48134 14.2636 3.96993 13.7522 3.33877 13.7522C2.70761 13.7522 2.19619 14.2636 2.19619 14.8948V72.5469C2.19619 75.5537 4.64268 78 7.64979 78H55.2487C58.2558 78 60.7023 75.5537 60.7023 72.5469V51.6849L63.1311 53.5865C63.4481 53.8348 63.8275 53.9621 64.2111 53.9621C64.4725 53.9621 64.7357 53.9029 64.9825 53.7827C65.591 53.4865 65.9691 52.882 65.9691 52.2053V39.4546C65.9691 38.8234 65.4577 38.312 64.8265 38.312C64.1954 38.312 63.6839 38.8234 63.6839 39.4546V51.1173L60.6467 48.7393C60.3397 48.4963 59.9537 48.3624 59.5595 48.3624C59.1654 48.3624 58.7794 48.4963 58.4773 48.7354L55.4367 51.1161V36.0911C55.5195 36.156 55.6029 36.2217 55.6873 36.2883C56.7677 37.142 57.9922 38.1092 59.5598 38.1092C61.1273 38.1092 62.3519 37.1419 63.4323 36.2884C64.0159 35.8274 64.5672 35.3917 65.0751 35.181C65.6234 34.9539 66.3481 34.8643 67.1155 34.7694C68.4595 34.6034 69.9827 34.4151 71.0461 33.3522C72.109 32.2891 72.2973 30.7658 72.4635 29.422C72.5584 28.6548 72.648 27.9302 72.8753 27.382C73.086 26.874 73.5215 26.3227 73.9827 25.7392C74.8364 24.659 75.8038 23.4346 75.8038 21.8671C75.8038 20.2997 74.8363 19.0753 73.9827 17.995V17.995ZM72.1897 24.3224C71.6523 25.0027 71.0965 25.7059 70.7646 26.5066C70.4183 27.3414 70.3051 28.2566 70.1957 29.1415C70.063 30.2149 69.9378 31.2288 69.4305 31.7361C68.923 32.2434 67.909 32.3686 66.8355 32.5013C65.9504 32.6107 65.0354 32.7237 64.2002 33.07C63.3995 33.402 62.6963 33.9576 62.0161 34.495C61.1509 35.1783 60.3339 35.8239 59.5602 35.8239C58.7864 35.8239 57.9694 35.1785 57.1042 34.495C56.424 33.9577 55.7208 33.402 54.9201 33.07C54.8649 33.0472 54.6736 32.9743 54.6323 32.9616C53.8771 32.6989 53.0692 32.5982 52.2847 32.5013C51.2111 32.3686 50.1971 32.2432 49.6896 31.7359C49.1825 31.2288 49.0571 30.2149 48.9244 29.1417C48.815 28.2566 48.702 27.3417 48.3557 26.5066C48.0236 25.7059 47.468 25.0027 46.9305 24.3224C46.2473 23.4574 45.6017 22.6406 45.6017 21.8671C45.6017 21.0937 46.2471 20.2768 46.9305 19.4118C47.468 18.7316 48.0238 18.0284 48.3557 17.2276C48.702 16.3928 48.8152 15.4777 48.9244 14.5927C49.0571 13.5193 49.1825 12.5054 49.6898 11.9981C50.1973 11.4908 51.2113 11.3656 52.2848 11.2329C53.1699 11.1235 54.0849 11.0105 54.9201 10.6642C55.7208 10.3323 56.424 9.77666 57.1042 9.23919C57.9675 8.55715 58.7832 7.91304 59.5556 7.9106C59.557 7.9106 59.5585 7.91075 59.5598 7.91075C59.5614 7.91075 59.5629 7.9106 59.5644 7.9106C60.3369 7.91289 61.1526 8.55715 62.0161 9.23919C62.6963 9.77651 63.3995 10.3323 64.2002 10.6642C65.0352 11.0105 65.9505 11.1237 66.8356 11.2329C67.9092 11.3656 68.9232 11.491 69.4305 11.9983C69.9378 12.5056 70.0632 13.5193 70.1959 14.5927C70.3053 15.4777 70.4183 16.3926 70.7646 17.2276C71.0967 18.0284 71.6523 18.7316 72.1897 19.4118C72.873 20.2768 73.5186 21.0937 73.5186 21.8671C73.5186 22.6406 72.8732 23.4576 72.1897 24.3224V24.3224Z" fill="black"/>
<path d="M66.8955 18.2362L63.0074 17.1361L60.7592 13.7785C60.4907 13.3775 60.0425 13.1383 59.56 13.1383C59.0775 13.1383 58.6292 13.3776 58.3607 13.7785L56.1126 17.1361L52.2242 18.2363C51.7598 18.3678 51.3936 18.7205 51.2446 19.1793C51.0956 19.6382 51.1849 20.1387 51.4832 20.5174L53.9821 23.6927L53.827 27.7293C53.8083 28.2117 54.0301 28.669 54.4205 28.9528C54.6711 29.1349 54.968 29.229 55.2683 29.229C55.4362 29.229 55.605 29.1996 55.7671 29.1399L59.5597 27.7447L63.352 29.1397C63.8049 29.3067 64.3081 29.2366 64.6985 28.9531C65.089 28.6696 65.3111 28.2124 65.2925 27.7299L65.1374 23.6925L67.6365 20.5172C67.9348 20.138 68.0239 19.6379 67.8748 19.179C67.7262 18.7202 67.36 18.3677 66.8955 18.2362V18.2362ZM63.1498 22.5236C62.9387 22.7923 62.8294 23.1284 62.8424 23.471L62.9609 26.5612L60.0583 25.4934C59.7367 25.375 59.3825 25.3752 59.0615 25.4932L56.1586 26.5612L56.2773 23.47C56.2901 23.1286 56.1807 22.7925 55.9691 22.5228L54.0566 20.0926L57.0332 19.2506C57.3624 19.1573 57.6487 18.9492 57.839 18.6649L59.5597 16.0948L61.2803 18.6646C61.4707 18.949 61.7569 19.1571 62.0868 19.2508L65.0628 20.0926L63.1498 22.5236Z" fill="black"/>
</g>
<defs>
<clipPath id="clip0">
<rect width="78" height="78" fill="white"/>
</clipPath>
</defs>
</svg>
