<svg width="83" height="83" viewBox="0 0 83 83" fill="none" xmlns="http://www.w3.org/2000/svg">
<path d="M37.1256 55.0653L37.6223 58.5435C37.6667 58.8524 37.8209 59.135 38.0567 59.3394C38.2925 59.5438 38.5942 59.6563 38.9062 59.6562H44.0938C44.4058 59.6563 44.7075 59.5438 44.9433 59.3394C45.1791 59.135 45.3333 58.8524 45.3777 58.5435L45.8744 55.0653C46.6057 54.8302 47.3166 54.5357 47.9999 54.1847L50.8103 56.2922C51.0599 56.479 51.3685 56.5697 51.6796 56.5476C51.9907 56.5254 52.2833 56.3919 52.504 56.1715L56.1715 52.504C56.3919 52.2833 56.5254 51.9907 56.5476 51.6796C56.5697 51.3685 56.479 51.0599 56.2922 50.8103L54.1847 47.9999C54.5357 47.3166 54.8302 46.6057 55.0653 45.8744L58.5435 45.3777C58.8524 45.3333 59.135 45.1791 59.3394 44.9433C59.5438 44.7075 59.6563 44.4058 59.6562 44.0938V38.9062C59.6563 38.5942 59.5438 38.2925 59.3394 38.0567C59.135 37.8209 58.8524 37.6667 58.5435 37.6223L55.0653 37.1256C54.8302 36.3943 54.5357 35.6834 54.1847 35.0001L56.2922 32.1897C56.479 31.9401 56.5697 31.6315 56.5476 31.3204C56.5254 31.0093 56.3919 30.7167 56.1715 30.496L52.504 26.8285C52.2842 26.6066 51.9913 26.4721 51.6798 26.4499C51.3683 26.4277 51.0593 26.5194 50.8103 26.7078L47.9999 28.8153C47.3166 28.4643 46.6057 28.1698 45.8744 27.9347L45.3777 24.4565C45.3333 24.1476 45.1791 23.865 44.9433 23.6606C44.7075 23.4562 44.4058 23.3437 44.0938 23.3438H38.9062C38.5942 23.3437 38.2925 23.4562 38.0567 23.6606C37.8209 23.865 37.6667 24.1476 37.6223 24.4565L37.1256 27.9347C36.3943 28.1698 35.6834 28.4643 35.0001 28.8153L32.1897 26.7078C31.9409 26.5188 31.6318 26.4268 31.3202 26.449C31.0085 26.4712 30.7155 26.6061 30.496 26.8285L26.8285 30.496C26.6081 30.7167 26.4746 31.0093 26.4524 31.3204C26.4303 31.6315 26.5209 31.9401 26.7078 32.1897L28.8153 35.0001C28.4643 35.6834 28.1698 36.3943 27.9347 37.1256L24.4565 37.6223C24.1476 37.6667 23.865 37.8209 23.6606 38.0567C23.4562 38.2925 23.3437 38.5942 23.3438 38.9062V44.0938C23.3437 44.4058 23.4562 44.7075 23.6606 44.9433C23.865 45.1791 24.1476 45.3333 24.4565 45.3777L27.9347 45.8744C28.1698 46.6057 28.4643 47.3166 28.8153 47.9999L26.7078 50.8103C26.5209 51.0599 26.4303 51.3685 26.4524 51.6796C26.4746 51.9907 26.6081 52.2833 26.8285 52.504L30.496 56.1715C30.7167 56.3919 31.0093 56.5254 31.3204 56.5476C31.6315 56.5697 31.9401 56.479 32.1897 56.2922L35.0001 54.1847C35.6834 54.5357 36.3943 54.8302 37.1256 55.0653V55.0653ZM34.1156 51.6078L31.5335 53.5428L29.4585 51.4678L31.3935 48.8857C31.5476 48.6805 31.6374 48.4342 31.6515 48.1779C31.6656 47.9217 31.6033 47.667 31.4726 47.4462C30.9057 46.4938 30.479 45.4648 30.2055 44.3907C30.1424 44.1418 30.0067 43.9172 29.8158 43.7454C29.6249 43.5736 29.3872 43.4624 29.133 43.4259L25.9375 42.9694V40.0306L29.1317 39.5754C29.3859 39.5389 29.6236 39.4277 29.8145 39.2559C30.0054 39.0841 30.1411 38.8595 30.2042 38.6106C30.4777 37.5365 30.9044 36.5075 31.4713 35.5551C31.602 35.3343 31.6643 35.0796 31.6502 34.8234C31.6361 34.5671 31.5463 34.3208 31.3922 34.1156L29.4572 31.5335L31.5322 29.4585L34.1143 31.3935C34.3195 31.5476 34.5658 31.6374 34.8221 31.6515C35.0783 31.6656 35.333 31.6033 35.5538 31.4726C36.5062 30.9057 37.5352 30.479 38.6093 30.2055C38.8582 30.1424 39.0828 30.0067 39.2546 29.8158C39.4264 29.6249 39.5376 29.3872 39.5741 29.133L40.0306 25.9375H42.9694L43.4246 29.1317C43.4611 29.3859 43.5723 29.6236 43.7441 29.8145C43.9159 30.0054 44.1405 30.1411 44.3894 30.2042C45.4635 30.4777 46.4925 30.9044 47.4449 31.4713C47.6657 31.602 47.9204 31.6643 48.1766 31.6502C48.4329 31.6361 48.6792 31.5463 48.8844 31.3922L51.4665 29.4572L53.5415 31.5322L51.6065 34.1143C51.4524 34.3195 51.3626 34.5658 51.3485 34.8221C51.3344 35.0783 51.3967 35.333 51.5274 35.5538C52.0943 36.5062 52.521 37.5352 52.7945 38.6093C52.8576 38.8582 52.9933 39.0828 53.1842 39.2546C53.3751 39.4264 53.6128 39.5376 53.867 39.5741L57.0625 40.0306V42.9694L53.8683 43.4246C53.6141 43.4611 53.3764 43.5723 53.1855 43.7441C52.9946 43.9159 52.8589 44.1405 52.7958 44.3894C52.5223 45.4635 52.0956 46.4925 51.5287 47.4449C51.398 47.6657 51.3357 47.9204 51.3498 48.1766C51.3639 48.4329 51.4537 48.6792 51.6078 48.8844L53.5428 51.4665L51.4678 53.5415L48.8857 51.6065C48.6805 51.4524 48.4342 51.3626 48.1779 51.3485C47.9217 51.3344 47.667 51.3967 47.4462 51.5274C46.4938 52.0943 45.4648 52.521 44.3907 52.7945C44.1418 52.8576 43.9172 52.9933 43.7454 53.1842C43.5736 53.3751 43.4624 53.6128 43.4259 53.867L42.9694 57.0625H40.0306L39.5754 53.8683C39.5389 53.6141 39.4277 53.3764 39.2559 53.1855C39.0841 52.9946 38.8595 52.8589 38.6106 52.7958C37.5365 52.5223 36.5075 52.0956 35.5551 51.5287C35.3343 51.398 35.0796 51.3357 34.8234 51.3498C34.5671 51.3639 34.3208 51.4537 34.1156 51.6078V51.6078Z" fill="black"/>
<path d="M41.5 49.2812C43.039 49.2812 44.5434 48.8249 45.823 47.9698C47.1026 47.1148 48.1 45.8996 48.6889 44.4777C49.2779 43.0559 49.432 41.4913 49.1317 39.9819C48.8315 38.4725 48.0904 37.086 47.0022 35.9978C45.9139 34.9096 44.5275 34.1685 43.018 33.8682C41.5086 33.568 39.9441 33.7221 38.5222 34.311C37.1004 34.9 35.8851 35.8973 35.0301 37.1769C34.1751 38.4566 33.7188 39.961 33.7188 41.5C33.7208 43.5631 34.5413 45.541 36.0001 46.9999C37.4589 48.4587 39.4369 49.2792 41.5 49.2812V49.2812ZM41.5 36.3125C42.526 36.3125 43.5289 36.6167 44.382 37.1867C45.2351 37.7567 45.9 38.5669 46.2926 39.5148C46.6852 40.4627 46.788 41.5057 46.5878 42.512C46.3877 43.5183 45.8936 44.4426 45.1681 45.1681C44.4426 45.8936 43.5183 46.3876 42.512 46.5878C41.5058 46.788 40.4627 46.6852 39.5148 46.2926C38.5669 45.9 37.7568 45.2351 37.1868 44.382C36.6167 43.5289 36.3125 42.526 36.3125 41.5C36.3125 40.1242 36.859 38.8047 37.8319 37.8319C38.8047 36.859 40.1242 36.3125 41.5 36.3125V36.3125Z" fill="black"/>
<path d="M41.5 9.0781C41.844 9.0781 42.1738 8.94146 42.417 8.69825C42.6602 8.45504 42.7969 8.12517 42.7969 7.78122V6.65942L47.2555 10.375L42.7969 14.0905V12.9687C42.7969 12.6248 42.6602 12.2949 42.417 12.0517C42.1738 11.8085 41.844 11.6718 41.5 11.6718C35.7469 11.6777 30.1178 13.3439 25.2885 16.4705C20.4592 19.597 16.6348 24.051 14.2747 29.2977L16.6402 30.3585C18.7058 25.7695 21.9996 21.8407 26.1578 19.006C30.3159 16.1714 35.1767 14.5411 40.2031 14.2954V16.8593C40.2028 17.1061 40.2728 17.3479 40.4051 17.5562C40.5373 17.7646 40.7262 17.9309 40.9497 18.0356C41.1731 18.1403 41.4218 18.1791 41.6666 18.1474C41.9113 18.1157 42.1419 18.0148 42.3313 17.8566L50.1125 11.3723C50.259 11.2506 50.3768 11.0981 50.4576 10.9258C50.5385 10.7534 50.5804 10.5654 50.5804 10.375C50.5804 10.1846 50.5385 9.99654 50.4576 9.82418C50.3768 9.65182 50.259 9.49938 50.1125 9.37767L42.3313 2.8933C42.1419 2.73512 41.9113 2.63426 41.6666 2.60257C41.4218 2.57088 41.1731 2.60966 40.9497 2.71438C40.7262 2.81909 40.5373 2.98538 40.4051 3.19373C40.2728 3.40208 40.2028 3.64383 40.2031 3.8906V6.50899C33.2731 6.78361 26.5789 9.10122 20.9626 13.1704C15.3462 17.2395 11.0584 22.8785 8.63849 29.3781L11.0727 30.2781C13.3836 24.0673 17.5351 18.7098 22.9722 14.9215C28.4094 11.1332 34.8733 9.09457 41.5 9.0781V9.0781Z" fill="black"/>
<path d="M41.5 73.9218C41.1561 73.9218 40.8262 74.0585 40.583 74.3017C40.3398 74.5449 40.2032 74.8748 40.2032 75.2187V76.3405L35.7445 72.625L40.2032 68.9094V70.0312C40.2032 70.3752 40.3398 70.705 40.583 70.9482C40.8262 71.1915 41.1561 71.3281 41.5 71.3281C47.2531 71.3222 52.8822 69.656 57.7116 66.5294C62.5409 63.4029 66.3652 58.9489 68.7253 53.7023L66.3598 52.6414C64.2942 57.2304 61.0005 61.1592 56.8423 63.9939C52.6841 66.8286 47.8234 68.4588 42.7969 68.7045V66.1406C42.7973 65.8938 42.7272 65.6521 42.595 65.4437C42.4627 65.2354 42.2738 65.0691 42.0504 64.9644C41.8269 64.8597 41.5782 64.8209 41.3335 64.8526C41.0888 64.8843 40.8582 64.9851 40.6687 65.1433L32.8875 71.6277C32.7411 71.7494 32.6233 71.9018 32.5424 72.0742C32.4616 72.2465 32.4196 72.4346 32.4196 72.625C32.4196 72.8154 32.4616 73.0034 32.5424 73.1758C32.6233 73.3481 32.7411 73.5006 32.8875 73.6223L40.6687 80.1066C40.9026 80.3001 41.1966 80.406 41.5 80.4062C41.6902 80.4064 41.878 80.3643 42.0499 80.283C42.2731 80.1785 42.4618 80.0127 42.5941 79.8048C42.7264 79.597 42.7968 79.3557 42.7969 79.1093V76.491C49.727 76.2163 56.4211 73.8987 62.0375 69.8296C67.6538 65.7604 71.9416 60.1215 74.3616 53.6219L71.9273 52.7218C69.6164 58.9326 65.465 64.2901 60.0278 68.0785C54.5907 71.8668 48.1268 73.9054 41.5 73.9218V73.9218Z" fill="black"/>
<path d="M80.2831 40.9501C80.1786 40.727 80.0128 40.5382 79.8049 40.4059C79.597 40.2736 79.3558 40.2033 79.1094 40.2031H76.491C76.2156 33.2736 73.8976 26.5801 69.8285 20.9644C65.7595 15.3486 60.121 11.0611 53.6219 8.64105L52.7219 11.0753C58.9323 13.386 64.2895 17.5371 68.0778 22.9737C71.8661 28.4104 73.9049 34.8737 73.9219 41.5C73.9219 41.8439 74.0586 42.1738 74.3018 42.417C74.545 42.6602 74.8748 42.7968 75.2188 42.7968H76.3406L72.625 47.2555L68.9095 42.7968H70.0313C70.3752 42.7968 70.7051 42.6602 70.9483 42.417C71.1915 42.1738 71.3282 41.8439 71.3282 41.5C71.3219 35.746 69.6558 30.116 66.5296 25.2853C63.4035 20.4547 58.9501 16.6284 53.7036 14.2656L52.6402 16.6311C57.2298 18.6985 61.1589 21.994 63.9937 26.1536C66.8285 30.3133 68.4588 35.1753 68.7046 40.2031H66.1407C65.8939 40.2027 65.6521 40.2728 65.4438 40.405C65.2355 40.5373 65.0692 40.7262 64.9644 40.9497C64.8597 41.1731 64.8209 41.4218 64.8526 41.6665C64.8843 41.9113 64.9852 42.1419 65.1434 42.3313L71.6277 50.1125C71.7494 50.2589 71.9019 50.3767 72.0743 50.4576C72.2466 50.5384 72.4347 50.5804 72.625 50.5804C72.8154 50.5804 73.0035 50.5384 73.1758 50.4576C73.3482 50.3767 73.5006 50.2589 73.6223 50.1125L80.1067 42.3313C80.2644 42.1416 80.3647 41.911 80.396 41.6664C80.4272 41.4217 80.3881 41.1733 80.2831 40.9501V40.9501Z" fill="black"/>
<path d="M11.6719 41.5C11.6589 47.0014 13.1729 52.3984 16.0453 57.0904C18.9177 61.7824 23.0357 65.5852 27.9412 68.0756L29.1213 65.7658C24.8387 63.5916 21.2098 60.3198 18.6051 56.2844C16.0004 52.2491 14.5132 47.5949 14.2955 42.7969H16.8594C17.1061 42.7972 17.3479 42.7272 17.5562 42.5949C17.7646 42.4627 17.9309 42.2738 18.0356 42.0503C18.1403 41.8268 18.1791 41.5782 18.1474 41.3334C18.1157 41.0887 18.0149 40.8581 17.8567 40.6687L11.3723 32.8874C11.2462 32.7481 11.0923 32.6367 10.9206 32.5604C10.7488 32.4842 10.5629 32.4448 10.375 32.4448C10.1871 32.4448 10.0012 32.4842 9.82945 32.5604C9.65768 32.6367 9.50379 32.7481 9.37771 32.8874L2.89333 40.6687C2.73515 40.8581 2.63429 41.0887 2.6026 41.3334C2.57091 41.5782 2.60969 41.8268 2.71441 42.0503C2.81912 42.2738 2.98541 42.4627 3.19376 42.5949C3.40211 42.7272 3.64386 42.7972 3.89063 42.7969H6.50902C6.74511 49.4891 8.8999 55.9725 12.7167 61.4747C16.5335 66.9769 21.8515 71.266 28.0371 73.8311L29.0357 71.4371C23.1191 68.9833 18.0641 64.8285 14.5112 59.499C10.9582 54.1695 9.06736 47.9052 9.07813 41.5C9.07813 41.156 8.94149 40.8262 8.69828 40.583C8.45507 40.3397 8.12521 40.2031 7.78125 40.2031H6.65946L10.375 35.7445L14.0906 40.2031H12.9688C12.6248 40.2031 12.2949 40.3397 12.0517 40.583C11.8085 40.8262 11.6719 41.156 11.6719 41.5Z" fill="black"/>
</svg>
