<svg width="78" height="78" viewBox="0 0 78 78" fill="none" xmlns="http://www.w3.org/2000/svg">
<g clip-path="url(#clip0)">
<path d="M38.9966 13.8692C25.1395 13.8692 13.8658 25.1429 13.8658 39C13.8658 52.8571 25.1395 64.1308 38.9966 64.1308C52.8538 64.1308 64.1275 52.8571 64.1275 39C64.1275 25.1429 52.8539 13.8692 38.9966 13.8692ZM38.9966 59.5616C27.659 59.5616 18.4351 50.3377 18.4351 39C18.4351 27.6623 27.659 18.4384 38.9966 18.4384C50.3343 18.4384 59.5582 27.6623 59.5582 39C59.5582 50.3377 50.3345 59.5616 38.9966 59.5616Z" fill="black"/>
<path d="M48.8044 30.5306L36.712 42.6228L29.1889 35.0999C28.2969 34.2076 26.8502 34.2076 25.958 35.0999C25.0658 35.9921 25.0658 37.4385 25.958 38.3308L35.0965 47.4693C35.5426 47.9154 36.1273 48.1385 36.7119 48.1385C37.2964 48.1385 37.8813 47.9155 38.3273 47.4693L52.035 33.7615C52.9272 32.8693 52.9272 31.4228 52.035 30.5306C51.1431 29.6384 49.6964 29.6384 48.8044 30.5306Z" fill="black"/>
<path d="M74.7287 22.9828C74.721 22.9781 66.7492 18.2063 66.7492 18.2063L64.9598 10.7953C64.1658 7.50683 61.142 5.30887 57.7685 5.57053L48.6843 6.27359C48.6843 6.27359 43.4514 1.6553 43.4411 1.64662C40.8658 -0.54692 37.1274 -0.54692 34.5522 1.64662C34.542 1.6553 29.309 6.27359 29.309 6.27359L20.2248 5.57053C16.8784 5.3107 13.8778 7.47027 13.0538 10.7134L10.5626 18.6511C10.5626 18.6511 3.28124 22.9769 3.27165 22.9828C0.38952 24.7542 -0.765737 28.3095 0.524922 31.4367L3.63323 38.9691L0.524922 46.5013C-0.765737 49.6285 0.38952 53.1839 3.2718 54.9552C3.28063 54.9607 11.2369 59.7014 11.2369 59.7014L13.0338 67.1427C13.785 70.2542 16.5323 72.3888 19.683 72.3885C20.1649 72.3885 19.6236 72.4068 29.2147 71.6718C29.2147 71.6718 34.5438 76.3482 34.5524 76.3554C35.84 77.4522 37.4184 78.0006 38.9969 78.0006C40.5752 78.0006 42.1538 77.4522 43.4414 76.3554C43.4499 76.3481 48.779 71.6718 48.779 71.6718L57.7687 72.3675C61.1411 72.6281 64.1661 70.4312 64.9599 67.1427L66.7494 59.7316C76.5043 53.8924 74.4359 55.1358 74.7288 54.9551C77.6108 53.1837 78.766 49.6284 77.4754 46.5012L74.3671 38.9688L77.4754 31.4364C78.7659 28.3095 77.6108 24.7543 74.7287 22.9828V22.9828ZM69.7835 39.8406L73.2516 48.2445C73.6805 49.2836 73.2992 50.4646 72.3453 51.0569L63.5802 56.3037C63.0541 56.6186 62.6767 57.1317 62.5327 57.7277L60.5182 66.0706C60.2536 67.1667 59.2471 67.8988 58.1211 67.8121L48.1718 67.0421C47.559 66.9947 46.9512 67.1967 46.4886 67.6027L40.4676 72.8864C39.613 73.6056 38.3805 73.6056 37.5259 72.8861L31.5051 67.6027C31.0424 67.1967 30.4344 66.9942 29.822 67.0421L19.8726 67.8121C18.7475 67.899 17.7402 67.1667 17.4756 66.0705L15.4531 57.6946C15.3089 57.0971 14.9298 56.5829 14.4017 56.2682L5.65329 51.0555C4.70075 50.4627 4.32029 49.2828 4.74888 48.2444L8.21694 39.8405C8.44738 39.2822 8.44738 38.6557 8.21694 38.0974L4.74842 29.6935C4.32013 28.6557 4.70014 27.4764 5.65161 26.8833L13.6478 22.133C14.1315 21.8456 14.4922 21.3899 14.6606 20.853C17.6075 11.4575 17.4412 12.0091 17.4753 11.8676C17.7398 10.7715 18.7445 10.0383 19.8723 10.1261L29.9201 10.9038C30.5366 10.9513 31.1449 10.7475 31.6081 10.3388L37.528 5.11407C38.3814 4.3973 39.6114 4.3973 40.465 5.11376L46.3852 10.3388C46.8484 10.7478 47.4582 10.9513 48.0732 10.9038L58.121 10.1261C59.2449 10.0393 60.2534 10.7714 60.518 11.8677L62.5326 20.2105C62.6765 20.8065 63.0539 21.3196 63.58 21.6346L72.3452 26.8813C73.2991 27.4736 73.6805 28.6545 73.2514 29.6935L69.7834 38.0974C69.5531 38.6558 69.5531 39.2824 69.7835 39.8406V39.8406Z" fill="black"/>
</g>
<defs>
<clipPath id="clip0">
<rect width="78" height="78" fill="white"/>
</clipPath>
</defs>
</svg>
