<?xml version="1.0" encoding="utf-8"?>
<!-- Generator: Adobe Illustrator 25.1.0, SVG Export Plug-In . SVG Version: 6.00 Build 0)  -->
<svg version="1.1" id="Layer_1" xmlns="http://www.w3.org/2000/svg" xmlns:xlink="http://www.w3.org/1999/xlink" x="0px" y="0px"
	 viewBox="0 0 963 277" style="enable-background:new 0 0 963 277;" xml:space="preserve">
<style type="text/css">
	.st0{fill-rule:evenodd;clip-rule:evenodd;fill:#102A83;stroke:#FFFFFF;stroke-width:6.571;stroke-miterlimit:5.1829;}
	.st1{fill-rule:evenodd;clip-rule:evenodd;fill:#102A83;}
</style>
<g id="g143" transform="matrix(1.295725,0,0,1.295725,-130.5523,-35.621285)">
	<path id="path28" class="st0" d="M489.61,65.15c184.56,0.05,335.07,36.61,335.06,81.39c-0.01,44.78-150.55,81.26-335.1,81.21
		c-184.56-0.05-335.07-36.61-335.06-81.39C154.52,101.58,305.06,65.1,489.61,65.15z M446.97,40.92
		c184.56,0.05,335.07,36.61,335.06,81.39c-0.01,44.78-150.55,81.26-335.1,81.21c-184.56-0.05-335.07-36.61-335.06-81.39
		C111.88,77.35,262.42,40.87,446.97,40.92L446.97,40.92z"/>
	<path id="path30" class="st1" d="M279.29,117.28c0.16,0.45,0.27,0.8,0.33,1.05c0.06,0.23,0.09,0.45,0.09,0.61
		c0,0.47-0.09,0.8-0.26,1.05c-0.16,0.25-0.42,0.36-0.74,0.36c-0.67,0-1.83-1.34-3.47-4.02c-0.9-1.41-1.63-2.57-2.19-3.46
		c-1.79-2.68-4.22-4.9-7.32-6.65c-3.1-1.75-6.19-2.62-9.26-2.63c-3.87,0-7.02,0.96-9.42,2.88c-2.4,1.92-3.6,4.4-3.6,7.45
		c0,1.46,0.3,2.75,0.91,3.91c0.62,1.17,1.57,2.22,2.86,3.19c1.09,0.82,5.88,2.41,14.37,4.74c2.23,0.63,3.96,1.11,5.19,1.46
		c5.45,1.53,9.48,3.75,12.11,6.65c2.62,2.92,3.93,6.59,3.93,11.02c0,6.18-2.29,11.25-6.85,15.22c-4.56,3.98-10.47,5.96-17.7,5.96
		c-1.93,0-3.99-0.18-6.18-0.54c-2.19-0.35-3.45-0.53-3.75-0.53c-1.46,0-2.72,0.77-3.77,2.32c-1.06,1.56-1.75,2.33-2.05,2.33
		c-0.26,0-0.47-0.09-0.63-0.28c-0.17-0.19-0.37-0.57-0.59-1.14l-8.76-20.12c-0.11-0.28-0.24-0.58-0.37-0.89
		c-0.14-0.32-0.21-0.51-0.21-0.6c0-0.44,0.1-0.77,0.3-1.03c0.19-0.25,0.46-0.38,0.79-0.38c0.53,0,1.6,1.15,3.19,3.46
		c1.59,2.32,3.23,4.33,4.9,6.06c2.9,3.08,5.8,5.31,8.69,6.69c2.89,1.39,6.05,2.07,9.48,2.07c3.95,0,7.16-1.05,9.67-3.13
		c2.5-2.1,3.75-4.78,3.75-8.06c0-5.12-6.07-9.45-18.21-12.98c-0.87-0.26-1.51-0.44-1.93-0.55c-7.26-2.17-12.29-4.59-15.08-7.29
		c-2.79-2.68-4.19-6.27-4.19-10.73c0-5.49,2.18-10.13,6.54-13.87c4.36-3.76,9.8-5.64,16.3-5.64c1.93,0,4.1,0.23,6.55,0.7
		c2.44,0.47,3.92,0.72,4.42,0.72c1.4,0,2.39-0.67,2.96-2.01c0.57-1.34,1.03-2.01,1.36-2.01c0.2,0,0.39,0.12,0.57,0.36
		c0.17,0.25,0.39,0.67,0.6,1.3L279.29,117.28z M292.16,158.65c0-2.08,0.67-3.8,2.03-5.19c1.36-1.38,3.05-2.07,5.05-2.07
		c2.04,0,3.76,0.7,5.16,2.1c1.39,1.39,2.09,3.11,2.09,5.16c0,2.03-0.7,3.75-2.12,5.19c-1.42,1.44-3.12,2.16-5.13,2.16
		c-1.99,0-3.66-0.72-5.02-2.13C292.84,162.44,292.16,160.71,292.16,158.65z M326.22,148.85c-0.47,1.31-0.83,2.55-1.09,3.72
		c-0.26,1.17-0.37,2.14-0.37,2.94c0,1.79,0.46,3.29,1.4,4.5c0.93,1.21,2.26,2.01,4,2.41c0.16,0.03,0.42,0.07,0.74,0.13
		c1.32,0.26,1.97,0.67,1.97,1.24c0,0.39-0.17,0.69-0.53,0.87c-0.34,0.19-0.91,0.28-1.69,0.28l-19.99-0.01
		c-0.77,0-1.34-0.09-1.69-0.28c-0.36-0.19-0.53-0.48-0.53-0.87c0-0.26,0.11-0.51,0.36-0.74c0.23-0.25,0.49-0.36,0.73-0.36
		c2.72,0,5.29-1.3,7.74-3.9c2.45-2.61,4.56-6.32,6.35-11.16l13.49-36.48c-0.59-0.73-1.44-1.38-2.56-1.95
		c-1.11-0.58-1.67-1.05-1.67-1.41c0-0.42,0.82-0.98,2.43-1.63c1.62-0.64,2.99-1.3,4.1-1.95c1.59-0.98,3.1-2.27,4.55-3.89
		c1.43-1.62,2.27-2.43,2.49-2.43c0.31,0,0.63,0.34,0.97,1.01c0.33,0.67,0.89,2.23,1.67,4.68l15.1,45.48c1.69,5.1,3.11,8.43,4.3,9.96
		c1.19,1.55,2.84,2.58,5,3.12c0.56,0.15,1.32,0.28,2.26,0.42c1.56,0.23,2.34,0.66,2.34,1.28c0,0.39-0.19,0.69-0.54,0.87
		c-0.36,0.19-0.94,0.28-1.72,0.28l-31.37-0.01c-0.87,0-1.47-0.1-1.8-0.29c-0.34-0.2-0.51-0.55-0.51-1.04c0-0.57,0.79-0.89,2.34-0.98
		c0.73-0.06,1.27-0.1,1.64-0.13c2.46-0.25,4.16-0.76,5.1-1.51c0.96-0.76,1.43-1.91,1.43-3.48c0-0.76-0.11-1.66-0.34-2.71
		c-0.21-1.04-0.73-2.76-1.54-5.15l-2.64-8.24l-19.3,0L326.22,148.85z M347.38,138.9l-8.37-26.27l-9.36,26.26L347.38,138.9z
		 M384.28,158.68c0-2.08,0.67-3.8,2.03-5.19c1.36-1.38,3.05-2.07,5.05-2.07c2.04,0,3.76,0.7,5.16,2.1c1.39,1.38,2.09,3.11,2.09,5.16
		c0,2.03-0.7,3.75-2.12,5.19c-1.42,1.44-3.12,2.16-5.13,2.16c-1.99,0-3.66-0.72-5.02-2.13
		C384.96,162.47,384.28,160.73,384.28,158.68L384.28,158.68z M407.7,164.97c-0.82,0-1.42-0.1-1.83-0.32c-0.4-0.22-0.6-0.55-0.6-1.01
		c0-0.74,0.86-1.19,2.56-1.37c0.86-0.07,1.56-0.17,2.09-0.29c2.37-0.45,4-1.66,4.86-3.61c0.87-1.94,1.3-6.38,1.3-13.34l0.01-22.29
		c0-6.75-0.34-11.06-1.04-12.93c-0.7-1.87-1.97-3.15-3.82-3.86c-0.76-0.29-1.93-0.48-3.55-0.58c-1.6-0.09-2.4-0.51-2.4-1.25
		c0-0.48,0.17-0.83,0.5-1.02c0.34-0.2,0.99-0.31,1.93-0.31l30.44,0.01c1.04,0,1.74,0.09,2.1,0.28c0.36,0.19,0.54,0.51,0.54,0.96
		c0,0.74-0.92,1.19-2.76,1.37c-0.99,0.09-1.73,0.17-2.26,0.25c-2.63,0.5-4.42,1.73-5.36,3.72c-0.96,2-1.43,6.46-1.43,13.38
		l-0.01,28.39c0,4.45,0.68,7.45,2.07,9.02c1.39,1.59,3.86,2.38,7.43,2.38c3.55,0,6.82-0.67,9.81-2.02c2.99-1.35,5.89-3.48,8.71-6.38
		c1.54-1.59,2.99-3.39,4.36-5.39c1.37-2.01,2.29-3.02,2.76-3.02c0.23,0,0.43,0.12,0.61,0.36c0.19,0.23,0.27,0.51,0.27,0.79
		c0,0.12-0.04,0.31-0.13,0.58c-0.09,0.26-0.21,0.63-0.41,1.08l-9.86,21.86c-0.27,0.6-0.5,0.99-0.67,1.15
		c-0.16,0.18-0.37,0.26-0.63,0.26c-0.47,0-0.86-0.45-1.14-1.34c-0.3-0.9-0.6-1.53-0.9-1.91c-1.07-1.28-2.77-2.2-5.12-2.76
		c-2.34-0.55-5.88-0.83-10.59-0.83L407.7,164.97z M473.71,150.47l4.19-10.51l18.69,0l-4.11,10.51L473.71,150.47z M513.26,146.38
		c0,4.78,0.54,8.44,1.63,10.99c1.09,2.55,2.8,4.1,5.12,4.64c0.67,0.18,1.54,0.31,2.63,0.38c1.73,0.15,2.6,0.6,2.6,1.37
		c0,0.45-0.17,0.77-0.53,0.96c-0.34,0.19-1.04,0.28-2.12,0.28l-20.06,0c-0.94,0-1.59-0.09-1.93-0.28c-0.33-0.19-0.5-0.51-0.5-0.96
		c0.03-0.71,0.73-1.14,2.09-1.28c0.43-0.03,0.77-0.07,1.06-0.13c2.5-0.42,4.39-1.94,5.63-4.56c1.24-2.62,1.86-6.37,1.86-11.24
		l0.01-24.12c0-6.78-0.35-11.05-1.07-12.8c-0.7-1.75-2.07-2.99-4.07-3.73c-0.47-0.2-1.4-0.35-2.79-0.47
		c-1.39-0.12-2.07-0.54-2.07-1.28c0-0.48,0.19-0.83,0.54-1.02c0.36-0.2,1-0.31,1.93-0.31l17.34,0c1.64,0,2.69,0.15,3.12,0.45
		c0.43,0.29,0.96,1.23,1.57,2.8l15.45,36.9l17.52-37.28c0.63-1.36,1.2-2.19,1.69-2.45c0.49-0.28,1.43-0.41,2.83-0.41l18.22,0.01
		c0.99,0,1.67,0.1,2.06,0.31c0.39,0.19,0.59,0.54,0.59,1.02c0,0.74-0.8,1.15-2.39,1.24c-0.84,0.06-1.5,0.13-1.97,0.2
		c-2.52,0.47-4.23,1.62-5.15,3.48c-0.93,1.87-1.39,6.31-1.39,13.35l-0.01,22.97c0,7.67,0.65,12.43,1.98,14.33
		c1.33,1.9,3.86,2.84,7.61,2.84c0.37,0,0.69,0.12,0.97,0.36c0.27,0.25,0.41,0.52,0.41,0.83c0,0.45-0.19,0.77-0.54,0.96
		c-0.37,0.19-1.06,0.28-2.1,0.28l-29.61-0.01c-0.97,0-1.63-0.09-1.97-0.28c-0.33-0.19-0.5-0.51-0.5-0.96c0-0.77,0.9-1.24,2.69-1.41
		c0.66-0.04,1.2-0.1,1.59-0.16c2.52-0.41,4.23-1.53,5.15-3.4c0.93-1.87,1.39-6.33,1.39-13.39l0.01-37.58l-17.52,36.97
		c0.73,0.54,1.67,0.96,2.86,1.27c1.17,0.29,1.77,0.66,1.79,1.08c0,0.47-0.73,1.11-2.19,1.95c-1.47,0.83-2.72,1.76-3.75,2.8
		c-1.26,1.25-2.46,2.84-3.6,4.78c-1.14,1.94-2,2.9-2.56,2.9c-0.44,0-0.97-0.7-1.59-2.1c-0.09-0.22-0.16-0.39-0.21-0.51l-19.72-47.87
		L513.26,146.38z M586.93,165.01c-0.81,0-1.42-0.1-1.83-0.32c-0.4-0.22-0.6-0.55-0.6-1.01c0-0.74,0.86-1.19,2.56-1.37
		c0.86-0.07,1.56-0.17,2.09-0.29c2.37-0.45,4-1.66,4.86-3.61c0.87-1.94,1.3-6.38,1.3-13.34l0.01-22.29c0-6.75-0.34-11.06-1.04-12.93
		c-0.7-1.87-1.97-3.15-3.82-3.86c-0.73-0.29-1.9-0.5-3.52-0.63c-1.62-0.12-2.43-0.55-2.43-1.3c0-0.45,0.16-0.77,0.49-0.96
		c0.31-0.19,0.97-0.28,1.94-0.28l29.48,0.01c4.55,0,7.98-0.1,10.27-0.32c2.29-0.22,3.93-0.55,4.95-1c0.83-0.39,1.57-1.02,2.2-1.88
		c0.63-0.86,1.03-1.28,1.23-1.28c0.33,0.03,0.6,0.16,0.81,0.38c0.21,0.23,0.47,0.71,0.77,1.46l6.96,17.22
		c0.14,0.41,0.24,0.71,0.31,0.95c0.07,0.23,0.11,0.39,0.14,0.51c0,0.2-0.1,0.38-0.31,0.54c-0.21,0.16-0.46,0.23-0.73,0.23
		c-0.43,0-1.34-0.95-2.79-2.83c-1.44-1.88-2.97-3.47-4.59-4.78c-2.73-2.25-5.69-3.98-8.86-5.19c-3.16-1.21-6.28-1.82-9.31-1.82
		c-3.45,0-5.85,0.78-7.21,2.37c-1.37,1.57-2.06,4.34-2.06,8.31l0,14.61l3.77,0c6.45,0,10.61-0.41,12.47-1.24
		c1.87-0.83,3.18-2.35,3.9-4.56c0.3-0.92,0.5-2.3,0.6-4.17c0.1-1.87,0.53-2.8,1.29-2.8c0.44,0,0.76,0.2,0.94,0.6
		c0.19,0.41,0.27,1.17,0.27,2.32l-0.01,23.13c0,1.37-0.09,2.26-0.27,2.65c-0.19,0.39-0.5,0.6-0.94,0.6c-0.7,0-1.13-1.04-1.3-3.12
		c-0.06-0.71-0.11-1.28-0.17-1.71c-0.33-3.1-1.53-5.45-3.57-7.06c-2.06-1.59-4.93-2.39-8.61-2.39l-8.38,0l-0.01,18.63
		c0,4.55,0.74,7.61,2.24,9.15c1.49,1.56,4.22,2.33,8.19,2.33c4.37,0,8.15-0.64,11.31-1.92c3.15-1.28,6.16-3.35,9.04-6.24
		c1.66-1.68,3.22-3.56,4.69-5.62c1.49-2.08,2.43-3.12,2.85-3.12c0.23,0,0.43,0.12,0.59,0.37c0.17,0.23,0.26,0.5,0.26,0.79
		c0,0.12-0.03,0.31-0.1,0.58c-0.07,0.26-0.2,0.63-0.4,1.08l-9.84,21.86c-0.26,0.54-0.47,0.92-0.67,1.11
		c-0.2,0.2-0.43,0.31-0.72,0.31c-0.5,0-0.9-0.45-1.17-1.34c-0.29-0.9-0.57-1.53-0.89-1.91c-1.09-1.28-2.79-2.2-5.13-2.76
		c-2.33-0.55-5.85-0.83-10.57-0.83L586.93,165.01z M686.53,145.09c0,6.63,0.38,10.9,1.15,12.77c0.76,1.88,2.17,3.19,4.25,3.94
		c0.8,0.32,2.06,0.53,3.76,0.64c1.7,0.12,2.56,0.54,2.56,1.28c0,0.45-0.17,0.77-0.5,0.96c-0.34,0.19-1.06,0.31-2.17,0.36l-31-0.01
		c-1,0-1.7-0.1-2.09-0.31c-0.39-0.19-0.59-0.54-0.59-1.02c0-0.74,0.92-1.19,2.76-1.37c0.96-0.09,1.71-0.19,2.3-0.29
		c2.52-0.44,4.25-1.6,5.19-3.51c0.96-1.91,1.43-6.38,1.43-13.45l0.01-28.52c0-4.55-0.44-7.58-1.34-9.1
		c-0.89-1.5-2.53-2.26-4.93-2.26c-2.07,0-4.2,0.66-6.39,1.98c-2.19,1.33-4.43,3.32-6.72,6c-0.93,1.02-1.96,2.33-3.1,3.92
		c-1.23,1.68-2.1,2.52-2.65,2.52c-0.27,0-0.5-0.1-0.69-0.32c-0.19-0.22-0.27-0.5-0.27-0.83c0-0.12,0.03-0.28,0.09-0.5
		c0.06-0.2,0.14-0.42,0.24-0.61l6.88-16.7c0.33-0.85,0.61-1.44,0.86-1.79c0.24-0.34,0.5-0.51,0.77-0.51c0.34,0,0.73,0.34,1.2,1.02
		c0.46,0.69,0.91,1.21,1.36,1.55c0.91,0.71,2.44,1.21,4.59,1.5c2.13,0.28,5.98,0.42,11.54,0.43l10.04,0c4.62,0,8.06-0.1,10.36-0.3
		c2.32-0.19,3.92-0.54,4.85-1.02c0.8-0.39,1.52-1.02,2.13-1.88c0.62-0.86,1.06-1.28,1.34-1.28c0.5,0,1,0.66,1.5,1.97
		c0.09,0.17,0.13,0.28,0.13,0.34l6.87,16.7c0.1,0.19,0.19,0.41,0.24,0.61c0.06,0.22,0.09,0.38,0.09,0.5c0,0.34-0.09,0.61-0.26,0.83
		c-0.16,0.22-0.39,0.32-0.66,0.32c-0.57,0-1.46-0.85-2.69-2.52c-1.14-1.59-2.16-2.9-3.06-3.92c-2.32-2.68-4.56-4.68-6.73-6.01
		c-2.19-1.33-4.32-1.98-6.42-1.98c-2.37,0-4,0.76-4.89,2.26c-0.9,1.52-1.35,4.55-1.35,9.1L686.53,145.09z"/>
</g>
</svg>
