<svg width="78" height="78" viewBox="0 0 78 78" fill="none" xmlns="http://www.w3.org/2000/svg">
<path d="M71.5 9.1H29.7154C29.1244 6.81111 27.0639 5.20886 24.7 5.2C24.2423 5.20633 23.7876 5.27411 23.348 5.4015C24.0646 3.82405 25.5742 2.75391 27.3 2.6C28.018 2.6 28.6 2.01797 28.6 1.3C28.6 0.58203 28.018 0 27.3 0C23.3298 0 20.0499 3.978 19.5676 9.1H16.7154C16.1244 6.81111 14.0639 5.20886 11.7 5.2C11.2423 5.20633 10.7876 5.27411 10.348 5.4015C11.0646 3.82405 12.5742 2.75391 14.3 2.6C15.018 2.6 15.6 2.01797 15.6 1.3C15.6 0.58203 15.018 0 14.3 0C10.3298 0 7.0499 3.978 6.5676 9.1H6.5C2.91193 9.1043 0.00429796 12.0119 0 15.6V62.4C0.00429796 65.9881 2.91193 68.8957 6.5 68.9H48.2846C48.8756 71.1889 50.9361 72.7911 53.3 72.8C53.7577 72.7937 54.2124 72.7259 54.652 72.5985C53.9354 74.1759 52.4257 75.2461 50.7 75.4C49.982 75.4 49.4 75.982 49.4 76.7C49.4 77.418 49.982 78 50.7 78C54.6702 78 57.9501 74.022 58.4324 68.9H61.2846C61.8756 71.1889 63.9361 72.7911 66.3 72.8C66.7577 72.7937 67.2124 72.7259 67.652 72.5985C66.9354 74.1759 65.4257 75.2461 63.7 75.4C62.982 75.4 62.4 75.982 62.4 76.7C62.4 77.418 62.982 78 63.7 78C67.6702 78 70.9501 74.022 71.4324 68.9H71.5C75.0881 68.8957 77.9957 65.9881 78 62.4V15.6C77.9957 12.0119 75.0881 9.1043 71.5 9.1V9.1ZM24.7 7.8C26.1359 7.8 27.3 8.96406 27.3 10.4C27.3 11.8359 26.1359 13 24.7 13C23.2641 13 22.1 11.8359 22.1 10.4C22.1 8.96406 23.2641 7.8 24.7 7.8ZM11.7 7.8C13.1359 7.8 14.3 8.96406 14.3 10.4C14.3 11.8359 13.1359 13 11.7 13C10.2641 13 9.1 11.8359 9.1 10.4C9.1 8.96406 10.2641 7.8 11.7 7.8ZM53.3 70.2C51.8641 70.2 50.7 69.0359 50.7 67.6C50.7 66.1641 51.8641 65 53.3 65C54.7359 65 55.9 66.1641 55.9 67.6C55.9 69.0359 54.7359 70.2 53.3 70.2ZM66.3 70.2C64.8641 70.2 63.7 69.0359 63.7 67.6C63.7 66.1641 64.8641 65 66.3 65C67.7359 65 68.9 66.1641 68.9 67.6C68.9 69.0359 67.7359 70.2 66.3 70.2ZM75.4 62.4C75.4 64.5539 73.6539 66.3 71.5 66.3H71.3154C70.7317 64.0065 68.6666 62.4012 66.3 62.4012C63.9334 62.4012 61.8683 64.0065 61.2846 66.3H58.3154C57.7317 64.0065 55.6666 62.4012 53.3 62.4012C50.9334 62.4012 48.8683 64.0065 48.2846 66.3H6.5C4.34609 66.3 2.6 64.5539 2.6 62.4V15.6C2.6 13.4461 4.34609 11.7 6.5 11.7H6.6846C7.26833 13.9935 9.33342 15.5988 11.7 15.5988C14.0666 15.5988 16.1317 13.9935 16.7154 11.7H19.6846C20.2683 13.9935 22.3334 15.5988 24.7 15.5988C27.0666 15.5988 29.1317 13.9935 29.7154 11.7H71.5C73.6539 11.7 75.4 13.4461 75.4 15.6V62.4Z" fill="black"/>
<path d="M66.3 19.5H11.7C9.54611 19.5 7.80002 21.2461 7.80002 23.4C7.80002 25.5539 9.54611 27.3 11.7 27.3H66.3C68.4539 27.3 70.2 25.5539 70.2 23.4C70.2 21.2461 68.4539 19.5 66.3 19.5ZM66.3 24.7H11.7C10.982 24.7 10.4 24.118 10.4 23.4C10.4 22.682 10.982 22.1 11.7 22.1H66.3C67.018 22.1 67.6 22.682 67.6 23.4C67.6 24.118 67.018 24.7 66.3 24.7Z" fill="black"/>
<path d="M11.7 37.7H50.7C52.8539 37.7 54.6 35.9539 54.6 33.8C54.6 31.6461 52.8539 29.9 50.7 29.9H11.7C9.54611 29.9 7.80002 31.6461 7.80002 33.8C7.80002 35.9539 9.54611 37.7 11.7 37.7ZM11.7 32.5H50.7C51.418 32.5 52 33.0821 52 33.8C52 34.518 51.418 35.1 50.7 35.1H11.7C10.982 35.1 10.4 34.518 10.4 33.8C10.4 33.0821 10.982 32.5 11.7 32.5Z" fill="black"/>
<path d="M66.3 29.9H61.1C58.9461 29.9 57.2 31.6461 57.2 33.8C57.2 35.9539 58.9461 37.7 61.1 37.7H66.3C68.4539 37.7 70.2 35.9539 70.2 33.8C70.2 31.6461 68.4539 29.9 66.3 29.9ZM66.3 35.1H61.1C60.382 35.1 59.8 34.518 59.8 33.8C59.8 33.0821 60.382 32.5 61.1 32.5H66.3C67.018 32.5 67.6 33.0821 67.6 33.8C67.6 34.518 67.018 35.1 66.3 35.1Z" fill="black"/>
<path d="M66.3 40.3H36.4C34.2461 40.3 32.5 42.0461 32.5 44.2C32.5 46.3539 34.2461 48.1 36.4 48.1H66.3C68.4539 48.1 70.2 46.3539 70.2 44.2C70.2 42.0461 68.4539 40.3 66.3 40.3ZM66.3 45.5H36.4C35.682 45.5 35.1 44.918 35.1 44.2C35.1 43.482 35.682 42.9 36.4 42.9H66.3C67.018 42.9 67.6 43.482 67.6 44.2C67.6 44.918 67.018 45.5 66.3 45.5Z" fill="black"/>
<path d="M11.7 48.1H26C28.1539 48.1 29.9 46.3539 29.9 44.2C29.9 42.0461 28.1539 40.3 26 40.3H11.7C9.54611 40.3 7.80002 42.0461 7.80002 44.2C7.80002 46.3539 9.54611 48.1 11.7 48.1ZM11.7 42.9H26C26.718 42.9 27.3 43.482 27.3 44.2C27.3 44.918 26.718 45.5 26 45.5H11.7C10.982 45.5 10.4 44.918 10.4 44.2C10.4 43.482 10.982 42.9 11.7 42.9Z" fill="black"/>
<path d="M40.3 50.7H11.7C9.54611 50.7 7.80002 52.446 7.80002 54.6C7.80002 56.7539 9.54611 58.5 11.7 58.5H40.3C42.4539 58.5 44.2 56.7539 44.2 54.6C44.2 52.446 42.4539 50.7 40.3 50.7ZM40.3 55.9H11.7C10.982 55.9 10.4 55.3179 10.4 54.6C10.4 53.882 10.982 53.3 11.7 53.3H40.3C41.018 53.3 41.6 53.882 41.6 54.6C41.6 55.3179 41.018 55.9 40.3 55.9Z" fill="black"/>
</svg>
